<mxfile host="app.diagrams.net" modified="2023-11-28T12:45:31.518Z" agent="Mozilla/5.0 (Windows NT 10.0; Win64; x64) AppleWebKit/537.36 (KHTML, like Gecko) Chrome/119.0.0.0 Safari/537.36 Edg/119.0.0.0" version="22.1.4" etag="gwe3X5g8avoJrG7yCFd3" type="github">
  <diagram name="第 1 页" id="DPzpteUbZ_c-rQRHMX19">
    <mxGraphModel>
      <root>
        <mxCell id="0" />
        <mxCell id="1" parent="0" />
      </root>
    </mxGraphModel>
  </diagram>
</mxfile>
